# xmcd
# 
# Track frame offsets:
#     150
#     16860
#     35222
# 
# Disc length: 749
# 
# Revision: 4
# Processed by: cddbd v1.5.2PL0 Copyright (c) Steve Scherf et al.
# Submitted via: BonkEnc v1.0.8
# 
DISCID=1d02eb03
DTITLE=Jennifer Rush - You`re My One And Only (Maxi)
DYEAR=1988
DGENRE=Pop
TTITLE0=You`re My One And Only (Single Version)
TTITLE1=Rain Coming Down On Me
TTITLE2=You`re My One And Only (Extended Version)
EXTD=
EXTT0=
EXTT1=
EXTT2=
PLAYORDER=
